<?xml version="1.0" standalone="no"?><!DOCTYPE svg PUBLIC "-//W3C//DTD SVG 1.1//EN" "http://www.w3.org/Graphics/SVG/1.1/DTD/svg11.dtd"><svg height="300" width="700" version="1.1" xmlns="http://www.w3.org/2000/svg" xmlns:xlink="http://www.w3.org/1999/xlink"><defs xmlns="http://www.w3.org/1999/xhtml"><style type="text/css"><![CDATA[
div { background: rgb(241, 243, 245); }
span { color: black; cursor: pointer; }
.highlighted { stroke: rgb(0, 205, 131); stroke-width: 2.5px; }]]></style></defs><g transform="translate(65,40)"><rect class="category_a" width="1" height="26" x="573.8139210056646" y="-13"/><rect class="category_a" width="1" height="26" x="540.3290137347715" y="-13"/><rect class="category_a" width="1" height="26" x="257.4392798944673" y="-13"/><rect class="category_a" width="1" height="26" x="50.80468689376892" y="-13"/><rect class="category_d" width="1" height="26" x="596.9069605028324" y="92"/><rect class="category_b" width="1" height="26" x="555.3394894079305" y="92"/><rect class="category_d" width="1" height="26" x="175.45898967952198" y="92"/><rect class="category_b" width="1" height="26" x="133.89151858462017" y="92"/><rect class="category_b" width="1" height="26" x="555.3394894079305" y="92"/><rect class="category_d" width="1" height="26" x="352.12074183285483" y="92"/><rect class="category_b" width="1" height="26" x="415.6747109490184" y="92"/><rect class="category_a" width="1" height="26" x="13.855823698300613" y="197"/><rect class="category_a" width="1" height="26" x="109.69193761154652" y="197"/><rect class="category_d" width="1" height="26" x="377.5711957786917" y="197"/><rect class="category_b" width="1" height="26" x="528.83060448514" y="197"/><g class="axis x-axis" transform="translate(0,233)" fill="none" font-size="10" font-family="sans-serif" text-anchor="middle"><path class="domain" stroke="#000" d="M0.5,6V0.5H620.5V6"/><g class="tick" opacity="1" transform="translate(13.855823698300613,0)"><line stroke="#000" y2="6" x1="0.5" x2="0.5"/><text fill="#000" y="9" x="0.5" dy="0.71em">2017</text></g><g class="tick" opacity="1" transform="translate(435.30379452161094,0)"><line stroke="#000" y2="6" x1="0.5" x2="0.5"/><text fill="#000" y="9" x="0.5" dy="0.71em">2018</text></g></g><g class="axis y-axis" fill="none" font-size="10" font-family="sans-serif" text-anchor="end"><path class="domain" stroke="#000" d="M-6,210.5H0.5V0.5H-6"/><g class="tick" opacity="1" transform="translate(0,210)"><line stroke="#000" x2="-6" y1="0.5" y2="0.5"/><text fill="#000" x="-9" y="0.5" dy="0.32em">C</text></g><g class="tick" opacity="1" transform="translate(0,105)"><line stroke="#000" x2="-6" y1="0.5" y2="0.5"/><text fill="#000" x="-9" y="0.5" dy="0.32em">B</text></g><g class="tick" opacity="1" transform="translate(0,0)"><line stroke="#000" x2="-6" y1="0.5" y2="0.5"/><text fill="#000" x="-9" y="0.5" dy="0.32em">A</text></g></g><rect class="category_c highlighted" width="1" height="26" x="620" y="-13"/><rect class="category_c highlighted" width="1" height="26" x="279.3776674167766" y="-13"/><rect class="category_c highlighted" width="1" height="26" x="561.1127492822224" y="92"/><rect class="category_c highlighted" width="1" height="26" x="103.9186777372546" y="92"/><rect class="category_c highlighted" width="1" height="26" x="0" y="92"/><rect class="category_c highlighted" width="1" height="26" x="290.9241871653605" y="197"/></g></svg>